# xmcd CD database file
#
# Track frame offsets:
#	150
#	32926
#	57856
#	75924
#	97858
#	113240
#	135075
#	142962
#	165980
#	206049
#	223176
#	255064
#	285065
#	309240
#
# Disc length: 4492 seconds
#
# Revision: 1
# Processed by: cddbd v1.5.1PL0 Copyright (c) Steve Scherf et al.
# Submitted via: CDex 1.51
#
DISCID=a5118a0e
DTITLE=Blue Note by Bobby Flores - Fin de Fiesta
DYEAR=2005
DGENRE=Jazz
TTITLE0=Song for my father-Horace Silver
TTITLE1=Take the A Train (live)- Duke Ellington
TTITLE2=You're mine you-Sarah Vaughan
TTITLE3=Cool Blues-Charlie Parker
TTITLE4=Darn That Dream-Miles Davis
TTITLE5=Don't Worry Be happy-Bobby McFerrin
TTITLE6=All Of Me-Billie Holiday
TTITLE7=Lay Lady Lay-Casandra Wilson
TTITLE8=Move Your Hand-Lonnie Smith
TTITLE9=I Can't Stop-Al Green
TTITLE10=Love For Sale-Cannonball Adderley
TTITLE11=Meaning of Loneliness-Van Morrison
TTITLE12=Listen Here-Gene Harris
TTITLE13=Along Came betty-Art Blñakey
EXTD=YEAR: 2005
EXTT0=
EXTT1=
EXTT2=
EXTT3=
EXTT4=
EXTT5=
EXTT6=
EXTT7=
EXTT8=
EXTT9=
EXTT10=
EXTT11=
EXTT12=
EXTT13=
PLAYORDER=
